<svg id="visual" viewBox="0 0 900 675" width="900" height="675" xmlns="http://www.w3.org/2000/svg" xmlns:xlink="http://www.w3.org/1999/xlink" version="1.1"><rect x="0" y="0" width="900" height="675" fill="#eee"></rect><path d="M774 675L781.7 668.3C789.3 661.7 804.7 648.3 808 635.2C811.3 622 802.7 609 802.7 595.8C802.7 582.7 811.3 569.3 809 556C806.7 542.7 793.3 529.3 787.3 516C781.3 502.7 782.7 489.3 780.3 476.2C778 463 772 450 774.3 436.8C776.7 423.7 787.3 410.3 788.3 397C789.3 383.7 780.7 370.3 779.3 357.2C778 344 784 331 786.7 317.8C789.3 304.7 788.7 291.3 788.2 278C787.7 264.7 787.3 251.3 789 238.2C790.7 225 794.3 212 798 198.8C801.7 185.7 805.3 172.3 808.2 159C811 145.7 813 132.3 808.7 119C804.3 105.7 793.7 92.3 794.8 79.2C796 66 809 53 815.8 39.8C822.7 26.7 823.3 13.3 823.7 6.7L824 0L900 0L900 6.7C900 13.3 900 26.7 900 39.8C900 53 900 66 900 79.2C900 92.3 900 105.7 900 119C900 132.3 900 145.7 900 159C900 172.3 900 185.7 900 198.8C900 212 900 225 900 238.2C900 251.3 900 264.7 900 278C900 291.3 900 304.7 900 317.8C900 331 900 344 900 357.2C900 370.3 900 383.7 900 397C900 410.3 900 423.7 900 436.8C900 450 900 463 900 476.2C900 489.3 900 502.7 900 516C900 529.3 900 542.7 900 556C900 569.3 900 582.7 900 595.8C900 609 900 622 900 635.2C900 648.3 900 661.7 900 668.3L900 675Z" fill="#eeeeee"></path><path d="M831 675L829 668.3C827 661.7 823 648.3 819.2 635.2C815.3 622 811.7 609 814.7 595.8C817.7 582.7 827.3 569.3 832.5 556C837.7 542.7 838.3 529.3 836.3 516C834.3 502.7 829.7 489.3 829.3 476.2C829 463 833 450 830.2 436.8C827.3 423.7 817.7 410.3 811.3 397C805 383.7 802 370.3 801.3 357.2C800.7 344 802.3 331 808.8 317.8C815.3 304.7 826.7 291.3 826.3 278C826 264.7 814 251.3 810.3 238.2C806.7 225 811.3 212 811.8 198.8C812.3 185.7 808.7 172.3 810.3 159C812 145.7 819 132.3 823.8 119C828.7 105.7 831.3 92.3 833.7 79.2C836 66 838 53 837.7 39.8C837.3 26.7 834.7 13.3 833.3 6.7L832 0L900 0L900 6.7C900 13.3 900 26.7 900 39.8C900 53 900 66 900 79.2C900 92.3 900 105.7 900 119C900 132.3 900 145.7 900 159C900 172.3 900 185.7 900 198.8C900 212 900 225 900 238.2C900 251.3 900 264.7 900 278C900 291.3 900 304.7 900 317.8C900 331 900 344 900 357.2C900 370.3 900 383.7 900 397C900 410.3 900 423.7 900 436.8C900 450 900 463 900 476.2C900 489.3 900 502.7 900 516C900 529.3 900 542.7 900 556C900 569.3 900 582.7 900 595.8C900 609 900 622 900 635.2C900 648.3 900 661.7 900 668.3L900 675Z" fill="#e5a99a"></path><path d="M827 675L832 668.3C837 661.7 847 648.3 846.7 635.2C846.3 622 835.7 609 833.8 595.8C832 582.7 839 569.3 838.7 556C838.3 542.7 830.7 529.3 831.5 516C832.3 502.7 841.7 489.3 841.5 476.2C841.3 463 831.7 450 827.8 436.8C824 423.7 826 410.3 828.7 397C831.3 383.7 834.7 370.3 838 357.2C841.3 344 844.7 331 847.8 317.8C851 304.7 854 291.3 851.3 278C848.7 264.7 840.3 251.3 838 238.2C835.7 225 839.3 212 839.2 198.8C839 185.7 835 172.3 835.2 159C835.3 145.7 839.7 132.3 840.7 119C841.7 105.7 839.3 92.3 841 79.2C842.7 66 848.3 53 848.7 39.8C849 26.7 844 13.3 841.5 6.7L839 0L900 0L900 6.7C900 13.3 900 26.7 900 39.8C900 53 900 66 900 79.2C900 92.3 900 105.7 900 119C900 132.3 900 145.7 900 159C900 172.3 900 185.7 900 198.8C900 212 900 225 900 238.2C900 251.3 900 264.7 900 278C900 291.3 900 304.7 900 317.8C900 331 900 344 900 357.2C900 370.3 900 383.7 900 397C900 410.3 900 423.7 900 436.8C900 450 900 463 900 476.2C900 489.3 900 502.7 900 516C900 529.3 900 542.7 900 556C900 569.3 900 582.7 900 595.8C900 609 900 622 900 635.2C900 648.3 900 661.7 900 668.3L900 675Z" fill="#ce644c"></path><path d="M871 675L871.8 668.3C872.7 661.7 874.3 648.3 874.8 635.2C875.3 622 874.7 609 872.7 595.8C870.7 582.7 867.3 569.3 863.8 556C860.3 542.7 856.7 529.3 855.2 516C853.7 502.7 854.3 489.3 854.7 476.2C855 463 855 450 856 436.8C857 423.7 859 410.3 860.2 397C861.3 383.7 861.7 370.3 862.8 357.2C864 344 866 331 864.7 317.8C863.3 304.7 858.7 291.3 856.7 278C854.7 264.7 855.3 251.3 856.2 238.2C857 225 858 212 860.3 198.8C862.7 185.7 866.3 172.3 868.3 159C870.3 145.7 870.7 132.3 867.8 119C865 105.7 859 92.3 858 79.2C857 66 861 53 862 39.8C863 26.7 861 13.3 860 6.7L859 0L900 0L900 6.7C900 13.3 900 26.7 900 39.8C900 53 900 66 900 79.2C900 92.3 900 105.7 900 119C900 132.3 900 145.7 900 159C900 172.3 900 185.7 900 198.8C900 212 900 225 900 238.2C900 251.3 900 264.7 900 278C900 291.3 900 304.7 900 317.8C900 331 900 344 900 357.2C900 370.3 900 383.7 900 397C900 410.3 900 423.7 900 436.8C900 450 900 463 900 476.2C900 489.3 900 502.7 900 516C900 529.3 900 542.7 900 556C900 569.3 900 582.7 900 595.8C900 609 900 622 900 635.2C900 648.3 900 661.7 900 668.3L900 675Z" fill="#ab0000"></path></svg>